<svg width="253" height="35" viewBox="0 0 253 35" fill="none" xmlns="http://www.w3.org/2000/svg">
<g clip-path="url(#clip0_1_343)">
<path d="M24.0169 18.4615L17.3867 13.5205L14.0554 11.0338L0.109375 0.625V23.3936L2.05753 24.9533L14.1731 34.6087L28.0044 23.3819V21.4337L24.0169 18.4615ZM4.09396 8.57063L10.7241 13.5205L8.80248 14.9477L6.38642 16.7517L4.09396 18.4615V8.57063ZM14.1525 29.4941L5.36232 22.4872L7.26338 21.0718L12.1396 17.4344L14.0554 16.0071L22.7691 22.499L14.1525 29.4941ZM15.9741 9.60062L19.3054 12.102L24.0169 8.57063V15.601L28.0044 18.5762V0.625L15.9741 9.60062Z" fill="url(#paint0_linear_1_343)"/>
<path d="M57.2175 7.20215V10.5158H41.1438V16.8664H55.8256V20.18H41.1438V28.6347H37.583V7.20215H57.2175Z" fill="white"/>
<path d="M59.9761 17.9172V17.8877C59.9524 16.3461 60.2149 14.8135 60.75 13.3676C61.2369 12.0656 62.0034 10.8863 62.9954 9.91267C64.0143 8.92367 65.2336 8.16498 66.5709 7.6879C68.1027 7.1495 69.7179 6.88744 71.3413 6.91394H76.0174C77.6455 6.88874 79.2653 7.15073 80.8025 7.6879C82.1448 8.15991 83.3701 8.91458 84.3956 9.9009C85.383 10.8806 86.1451 12.0636 86.6292 13.3676C87.163 14.8139 87.4254 16.3462 87.4032 17.8877V17.9172C87.4237 19.4691 87.1615 21.0118 86.6292 22.4697C86.151 23.7757 85.388 24.9589 84.3956 25.9334C83.3669 26.9121 82.1422 27.6614 80.8025 28.1317C79.2653 28.6689 77.6455 28.9309 76.0174 28.9057H71.3413C69.7179 28.9322 68.1027 28.6701 66.5709 28.1317C65.2371 27.66 64.0184 26.9107 62.9954 25.9334C61.9962 24.9599 61.2288 23.7741 60.75 22.4638C60.2171 21.0081 59.9548 19.4672 59.9761 17.9172ZM63.5369 17.9172C63.5217 19.0091 63.7001 20.0951 64.0637 21.1248C64.3846 22.0364 64.902 22.8662 65.5792 23.5556C66.2755 24.2369 67.1107 24.7599 68.0276 25.0888C69.0904 25.4689 70.2127 25.6553 71.3413 25.6391H76.0174C78.5169 25.6391 80.4473 24.9525 81.8089 23.5792C83.1704 22.2058 83.8522 20.3264 83.8542 17.9407V17.9113C83.8689 16.8251 83.6905 15.745 83.3274 14.7213C83.0019 13.8156 82.4838 12.9912 81.8089 12.3052C81.1087 11.6216 80.2682 11.0985 79.3458 10.772C78.2768 10.3971 77.1501 10.2138 76.0174 10.2305H71.3413C70.2134 10.213 69.0913 10.3964 68.0276 10.772C67.1107 11.1009 66.2755 11.6239 65.5792 12.3052C64.9042 12.9907 64.387 13.8152 64.0637 14.7213C63.6991 15.7446 63.5207 16.825 63.5369 17.9113V17.9172Z" fill="white"/>
<path d="M104.137 17.8552L113.646 28.6348H109.246L101.442 19.7151L93.6698 28.6348H89.2761L98.755 17.8552L89.3938 7.20219H93.8081L101.474 15.9277L109.125 7.19336H113.522L104.137 17.8552Z" fill="white"/>
<path d="M125.197 7.20215H129.223L138.11 24.5648L146.968 7.20215H150.994L139.938 28.6347H136.253L125.197 7.20215Z" fill="white"/>
<path d="M154.649 28.6347V7.20215H158.243V28.6347H154.649Z" fill="white"/>
<path d="M181.808 13.0554C181.368 12.1034 180.636 11.3166 179.718 10.8101C178.8 10.298 177.618 10.042 176.172 10.042H171.063C169.594 10.042 168.469 10.2853 167.688 10.7718C167.326 10.9703 167.024 11.2642 166.817 11.6215C166.609 11.9789 166.504 12.3862 166.511 12.7994C166.51 13.1266 166.579 13.4502 166.712 13.7489C166.846 14.0476 167.041 14.3148 167.285 14.5327C167.801 15.0291 168.73 15.3911 170.072 15.6186L178.712 16.6398C179.685 16.7801 180.631 17.0731 181.513 17.5079C182.202 17.8492 182.814 18.3279 183.311 18.9146C183.75 19.4534 184.077 20.0749 184.271 20.7421C184.47 21.4317 184.569 22.1462 184.565 22.8639C184.59 23.7077 184.413 24.5453 184.05 25.3073C183.687 26.0693 183.147 26.7338 182.476 27.2458C181.081 28.3523 179.093 28.9045 176.514 28.9026H171.278C168.946 28.9026 167.021 28.4847 165.504 27.6489C164.036 26.8702 162.906 25.5787 162.329 24.0204L165.396 22.1311C165.89 23.4319 166.632 24.3706 167.623 24.9474C168.763 25.5628 170.046 25.8626 171.34 25.8155H176.575C178.062 25.8155 179.188 25.5468 179.951 25.0092C180.312 24.7703 180.607 24.443 180.807 24.0583C181.007 23.6736 181.105 23.2442 181.093 22.8109C181.11 22.4359 181.046 22.0616 180.904 21.714C180.762 21.3664 180.546 21.0539 180.272 20.798C179.724 20.3036 178.841 19.9426 177.623 19.7151L168.671 18.5997C167.764 18.4543 166.882 18.1777 166.055 17.7787C165.404 17.4572 164.816 17.0217 164.318 16.4927C163.877 16.0176 163.545 15.4523 163.344 14.8359C163.145 14.2109 163.046 13.5584 163.05 12.9024C163.05 11.0426 163.747 9.58095 165.139 8.51761C166.532 7.45427 168.561 6.92358 171.225 6.92554H176.266C178.287 6.92554 179.974 7.27574 181.328 7.97613C182.604 8.5949 183.639 9.61953 184.271 10.8895L181.808 13.0554Z" fill="white"/>
<path d="M188.838 28.6347V7.20215H192.431V28.6347H188.838Z" fill="white"/>
<path d="M196.799 17.9167V17.8873C196.776 16.3457 197.038 14.8131 197.573 13.3671C198.06 12.0652 198.827 10.8859 199.819 9.91226C200.837 8.92325 202.057 8.16456 203.394 7.68748C204.928 7.15274 206.544 6.89466 208.167 6.92529H212.844C214.47 6.89666 216.089 7.15466 217.626 7.68748C218.968 8.15883 220.194 8.91358 221.219 9.90049C222.213 10.8785 222.981 12.0616 223.47 13.3671C224.004 14.8134 224.266 16.3458 224.244 17.8873V17.9167C224.265 19.4687 224.002 21.0113 223.47 22.4693C222.987 23.777 222.218 24.9603 221.219 25.933C220.191 26.9124 218.966 27.6618 217.626 28.1313C216.089 28.6685 214.469 28.9305 212.841 28.9053H208.167C206.544 28.9317 204.929 28.6697 203.397 28.1313C202.062 27.6599 200.843 26.9107 199.819 25.933C198.82 24.9612 198.053 23.7775 197.573 22.4693C197.04 21.0117 196.777 19.4688 196.799 17.9167ZM200.36 17.9167C200.346 19.0086 200.525 20.0943 200.887 21.1244C201.208 22.0367 201.726 22.8667 202.405 23.5552C203.1 24.2373 203.934 24.7604 204.851 25.0884C205.915 25.4688 207.038 25.6552 208.167 25.6387H212.844C215.343 25.6387 217.274 24.9521 218.635 23.5787C219.997 22.2054 220.683 20.3259 220.695 17.9403V17.9109C220.71 16.8247 220.531 15.7446 220.168 14.7208C219.843 13.8151 219.325 12.9908 218.65 12.3048C217.95 11.6206 217.109 11.0973 216.187 10.7716C215.118 10.3967 213.991 10.2134 212.858 10.2301H208.167C207.04 10.2126 205.918 10.3959 204.854 10.7716C203.937 11.0996 203.103 11.6227 202.408 12.3048C201.731 12.9893 201.213 13.8141 200.89 14.7208C200.527 15.7446 200.348 16.8247 200.363 17.9109L200.36 17.9167Z" fill="white"/>
<path d="M248.582 7.20215H252.113V28.6347H248.735L232.105 12.5287V28.6347H228.573V7.20215H231.949L248.582 23.3377V7.20215Z" fill="white"/>
</g>
<defs>
<linearGradient id="paint0_linear_1_343" x1="0.491942" y1="25.5684" x2="25.5089" y2="0.551431" gradientUnits="userSpaceOnUse">
<stop stop-color="#6734FF"/>
<stop offset="0.39" stop-color="#4B17E6"/>
<stop offset="0.73" stop-color="#00F9E0"/>
<stop offset="1" stop-color="#05D5FB"/>
</linearGradient>
<clipPath id="clip0_1_343">
<rect width="252" height="33.9837" fill="white" transform="translate(0.109375 0.625)"/>
</clipPath>
</defs>
</svg>
