<svg width="208" height="29" viewBox="0 0 208 29" fill="none" xmlns="http://www.w3.org/2000/svg">
<g clip-path="url(#clip0_1_698)">
<path d="M19.7476 14.8189L14.3014 10.7602L11.565 8.71754L0.109314 0.16748V18.8703L1.70958 20.1515L11.6617 28.0827L23.0231 18.8606V17.2604L19.7476 14.8189ZM3.38237 6.69425L8.82859 10.7602L7.25008 11.9326L5.26546 13.4144L3.38237 14.8189V6.69425ZM11.6448 23.8814L4.42423 18.1258L5.98582 16.963L9.99132 13.9752L11.565 12.8028L18.7227 18.1354L11.6448 23.8814ZM13.1411 7.54031L15.8775 9.59503L19.7476 6.69425V12.4692L23.0231 14.9131V0.16748L13.1411 7.54031Z" fill="url(#paint0_linear_1_698)"/>
<path d="M47.0189 5.57031V8.29222H33.8155V13.5088H45.8755V16.2307H33.8155V23.1757H30.8906V5.57031H47.0189Z" fill="black"/>
<path d="M49.2863 14.3716V14.3475C49.2669 13.0811 49.4825 11.8222 49.9221 10.6345C50.322 9.56501 50.9516 8.59628 51.7665 7.79654C52.6034 6.98414 53.605 6.36093 54.7035 5.96904C55.9617 5.52678 57.2885 5.31152 58.622 5.33329H62.4631C63.8005 5.31259 65.131 5.5278 66.3937 5.96904C67.4963 6.35677 68.5028 6.97667 69.3452 7.78687C70.1562 8.59165 70.7823 9.56335 71.18 10.6345C71.6184 11.8225 71.834 13.0812 71.8157 14.3475V14.3716C71.8326 15.6464 71.6171 16.9136 71.18 18.1112C70.7871 19.1841 70.1604 20.156 69.3452 20.9564C68.5002 21.7604 67.4942 22.3759 66.3937 22.7622C65.131 23.2034 63.8005 23.4186 62.4631 23.3979H58.622C57.2885 23.4197 55.9617 23.2044 54.7035 22.7622C53.6078 22.3747 52.6068 21.7592 51.7665 20.9564C50.9457 20.1568 50.3153 19.1827 49.9221 18.1064C49.4843 16.9106 49.2688 15.6449 49.2863 14.3716ZM52.2113 14.3716C52.1988 15.2686 52.3453 16.1607 52.644 17.0065C52.9076 17.7553 53.3326 18.4369 53.8889 19.0032C54.4608 19.5629 55.1469 19.9925 55.9001 20.2627C56.7731 20.5748 57.695 20.7279 58.622 20.7147H62.4631C64.5162 20.7147 66.102 20.1507 67.2204 19.0226C68.3388 17.8945 68.8988 16.3506 68.9004 14.391V14.3668C68.9125 13.4746 68.766 12.5874 68.4677 11.7464C68.2004 11.0025 67.7748 10.3254 67.2204 9.76182C66.6452 9.20033 65.9548 8.7706 65.1971 8.50239C64.319 8.19447 63.3935 8.0439 62.4631 8.05761H58.622C57.6955 8.04323 56.7738 8.19384 55.9001 8.50239C55.1469 8.77258 54.4608 9.20217 53.8889 9.76182C53.3344 10.3249 52.9096 11.0022 52.644 11.7464C52.3445 12.5871 52.198 13.4745 52.2113 14.3668V14.3716Z" fill="black"/>
<path d="M85.5609 14.3209L93.3713 23.1756H89.7574L83.3467 15.8487L76.9625 23.1756H73.3535L81.1396 14.3209L73.4501 5.57024H77.0761L83.3733 12.7376L89.6583 5.56299H93.2698L85.5609 14.3209Z" fill="black"/>
<path d="M102.859 5.57031H106.166L113.467 19.8325L120.743 5.57031H124.05L114.968 23.1757H111.941L102.859 5.57031Z" fill="black"/>
<path d="M127.053 23.1757V5.57031H130.004V23.1757H127.053Z" fill="black"/>
<path d="M149.362 10.3783C149.001 9.59624 148.399 8.94999 147.645 8.53389C146.891 8.11327 145.92 7.90296 144.732 7.90296H140.536C139.329 7.90296 138.405 8.1028 137.763 8.50246C137.465 8.66552 137.218 8.90689 137.048 9.20045C136.877 9.49402 136.79 9.8286 136.796 10.168C136.796 10.4367 136.852 10.7025 136.962 10.9479C137.071 11.1933 137.232 11.4127 137.432 11.5918C137.856 11.9995 138.619 12.2968 139.721 12.4838L146.818 13.3226C147.618 13.4379 148.395 13.6785 149.12 14.0357C149.686 14.316 150.188 14.7092 150.597 15.1912C150.957 15.6338 151.225 16.1443 151.385 16.6923C151.548 17.2588 151.63 17.8457 151.627 18.4352C151.647 19.1284 151.502 19.8164 151.203 20.4423C150.905 21.0683 150.462 21.6141 149.91 22.0346C148.764 22.9435 147.132 23.3972 145.013 23.3956H140.712C138.796 23.3956 137.215 23.0523 135.97 22.3658C134.764 21.7261 133.835 20.6653 133.361 19.3852L135.88 17.8333C136.286 18.9018 136.896 19.6729 137.71 20.1467C138.646 20.6522 139.7 20.8984 140.763 20.8598H145.064C146.285 20.8598 147.209 20.639 147.836 20.1975C148.133 20.0012 148.375 19.7324 148.54 19.4164C148.704 19.1004 148.784 18.7477 148.774 18.3917C148.788 18.0837 148.735 17.7762 148.619 17.4907C148.503 17.2052 148.325 16.9484 148.1 16.7383C147.65 16.3322 146.925 16.0356 145.924 15.8487L138.571 14.9325C137.825 14.8131 137.101 14.5859 136.422 14.2581C135.887 13.994 135.404 13.6363 134.995 13.2017C134.633 12.8115 134.36 12.3471 134.195 11.8408C134.032 11.3274 133.95 10.7914 133.954 10.2526C133.954 8.72485 134.526 7.52425 135.67 6.65079C136.814 5.77733 138.48 5.34141 140.669 5.34302H144.81C146.47 5.34302 147.856 5.63068 148.967 6.20601C150.016 6.71428 150.866 7.55594 151.385 8.59915L149.362 10.3783Z" fill="black"/>
<path d="M155.137 23.1757V5.57031H158.088V23.1757H155.137Z" fill="black"/>
<path d="M161.677 14.3715V14.3473C161.658 13.081 161.873 11.8221 162.313 10.6343C162.713 9.56488 163.342 8.59615 164.157 7.7964C164.994 6.98401 165.996 6.36079 167.094 5.96891C168.354 5.52966 169.681 5.31767 171.015 5.34282H174.856C176.192 5.3193 177.522 5.53123 178.784 5.96891C179.887 6.35609 180.894 6.97606 181.736 7.78673C182.552 8.59009 183.183 9.5619 183.585 10.6343C184.024 11.8224 184.239 13.0811 184.221 14.3473V14.3715C184.238 15.6463 184.022 16.9135 183.585 18.1111C183.188 19.1853 182.556 20.1573 181.736 20.9563C180.891 21.7608 179.885 22.3764 178.784 22.762C177.522 23.2033 176.191 23.4185 174.854 23.3978H171.015C169.682 23.4196 168.355 23.2043 167.097 22.762C166 22.3749 164.998 21.7594 164.157 20.9563C163.337 20.1581 162.707 19.1857 162.313 18.1111C161.874 16.9138 161.659 15.6464 161.677 14.3715ZM164.602 14.3715C164.591 15.2684 164.737 16.1602 165.035 17.0064C165.298 17.7557 165.724 18.4376 166.282 19.0031C166.852 19.5634 167.538 19.9931 168.291 20.2625C169.164 20.575 170.087 20.7281 171.015 20.7146H174.856C176.909 20.7146 178.495 20.1505 179.613 19.0224C180.732 17.8944 181.296 16.3505 181.306 14.3909V14.3667C181.318 13.4745 181.171 12.5872 180.873 11.7463C180.606 11.0023 180.18 10.3252 179.626 9.76169C179.051 9.19965 178.36 8.76984 177.602 8.50226C176.724 8.19434 175.799 8.04376 174.868 8.05747H171.015C170.089 8.0431 169.167 8.19371 168.293 8.50226C167.54 8.77172 166.855 9.20142 166.284 9.76169C165.728 10.324 165.303 11.0015 165.037 11.7463C164.739 12.5872 164.592 13.4745 164.604 14.3667L164.602 14.3715Z" fill="black"/>
<path d="M204.211 5.57031H207.111V23.1757H204.336L190.676 9.94566V23.1757H187.775V5.57031H190.548L204.211 18.8245V5.57031Z" fill="black"/>
</g>
<defs>
<linearGradient id="paint0_linear_1_698" x1="0.423565" y1="20.6567" x2="20.9732" y2="0.107049" gradientUnits="userSpaceOnUse">
<stop stop-color="#6734FF"/>
<stop offset="0.39" stop-color="#4B17E6"/>
<stop offset="0.73" stop-color="#00F9E0"/>
<stop offset="1" stop-color="#05D5FB"/>
</linearGradient>
<clipPath id="clip0_1_698">
<rect width="207" height="27.9152" fill="white" transform="translate(0.109375 0.16748)"/>
</clipPath>
</defs>
</svg>

