<svg width="208" height="29" viewBox="0 0 208 29" fill="none" xmlns="http://www.w3.org/2000/svg">
<g clip-path="url(#clip0_1_390)">
<path d="M19.7477 14.8189L14.3015 10.7602L11.5651 8.71754L0.109375 0.16748V18.8703L1.70964 20.1515L11.6618 28.0827L23.0232 18.8606V17.2604L19.7477 14.8189ZM3.38243 6.69425L8.82865 10.7602L7.25014 11.9326L5.26552 13.4144L3.38243 14.8189V6.69425ZM11.6448 23.8814L4.42429 18.1258L5.98588 16.963L9.99138 13.9752L11.5651 12.8028L18.7227 18.1354L11.6448 23.8814ZM13.1412 7.54031L15.8776 9.59503L19.7477 6.69425V12.4692L23.0232 14.9131V0.16748L13.1412 7.54031Z" fill="url(#paint0_linear_1_390)"/>
<path d="M47.02 5.57031V8.29222H33.8166V13.5088H45.8766V16.2307H33.8166V23.1757H30.8916V5.57031H47.02Z" fill="black"/>
<path d="M49.2854 14.3716V14.3475C49.266 13.0811 49.4815 11.8222 49.9211 10.6345C50.321 9.56501 50.9506 8.59628 51.7656 7.79654C52.6025 6.98414 53.604 6.36093 54.7026 5.96904C55.9608 5.52678 57.2876 5.31152 58.6211 5.33329H62.4622C63.7996 5.31259 65.1301 5.5278 66.3928 5.96904C67.4954 6.35677 68.5019 6.97667 69.3443 7.78687C70.1553 8.59165 70.7814 9.56335 71.1791 10.6345C71.6175 11.8225 71.8331 13.0812 71.8148 14.3475V14.3716C71.8317 15.6464 71.6162 16.9136 71.1791 18.1112C70.7862 19.1841 70.1595 20.156 69.3443 20.9564C68.4993 21.7604 67.4933 22.3759 66.3928 22.7622C65.1301 23.2034 63.7996 23.4186 62.4622 23.3979H58.6211C57.2876 23.4197 55.9608 23.2044 54.7026 22.7622C53.6069 22.3747 52.6059 21.7592 51.7656 20.9564C50.9448 20.1568 50.3144 19.1827 49.9211 18.1064C49.4834 16.9106 49.2679 15.6449 49.2854 14.3716ZM52.2103 14.3716C52.1979 15.2686 52.3444 16.1607 52.643 17.0065C52.9067 17.7553 53.3317 18.4369 53.888 19.0032C54.4599 19.5629 55.1459 19.9925 55.8992 20.2627C56.7722 20.5748 57.694 20.7279 58.6211 20.7147H62.4622C64.5153 20.7147 66.1011 20.1507 67.2195 19.0226C68.3379 17.8945 68.8979 16.3506 68.8995 14.391V14.3668C68.9116 13.4746 68.7651 12.5874 68.4668 11.7464C68.1995 11.0025 67.7739 10.3254 67.2195 9.76182C66.6443 9.20033 65.9539 8.7706 65.1962 8.50239C64.3181 8.19447 63.3926 8.0439 62.4622 8.05761H58.6211C57.6946 8.04323 56.7729 8.19384 55.8992 8.50239C55.1459 8.77258 54.4599 9.20217 53.888 9.76182C53.3335 10.3249 52.9086 11.0022 52.643 11.7464C52.3436 12.5871 52.197 13.4745 52.2103 14.3668V14.3716Z" fill="black"/>
<path d="M85.561 14.3209L93.3713 23.1756H89.7575L83.3467 15.8487L76.9626 23.1756H73.3535L81.1397 14.3209L73.4502 5.57024H77.0762L83.3733 12.7376L89.6583 5.56299H93.2698L85.561 14.3209Z" fill="black"/>
<path d="M102.86 5.57031H106.167L113.468 19.8325L120.744 5.57031H124.051L114.969 23.1757H111.942L102.86 5.57031Z" fill="black"/>
<path d="M127.053 23.1757V5.57031H130.004V23.1757H127.053Z" fill="black"/>
<path d="M149.362 10.3783C149.001 9.59624 148.399 8.94999 147.645 8.53389C146.891 8.11327 145.92 7.90296 144.732 7.90296H140.536C139.329 7.90296 138.405 8.1028 137.763 8.50246C137.466 8.66552 137.218 8.90689 137.048 9.20045C136.877 9.49402 136.79 9.8286 136.796 10.168C136.796 10.4367 136.852 10.7025 136.962 10.9479C137.071 11.1933 137.232 11.4127 137.432 11.5918C137.856 11.9995 138.619 12.2968 139.721 12.4838L146.819 13.3226C147.618 13.4379 148.395 13.6785 149.12 14.0357C149.686 14.316 150.189 14.7092 150.597 15.1912C150.957 15.6338 151.225 16.1443 151.385 16.6923C151.548 17.2588 151.63 17.8457 151.627 18.4352C151.647 19.1284 151.502 19.8164 151.203 20.4423C150.905 21.0683 150.462 21.6141 149.91 22.0346C148.765 22.9435 147.132 23.3972 145.013 23.3956H140.712C138.796 23.3956 137.215 23.0523 135.97 22.3658C134.764 21.7261 133.835 20.6653 133.361 19.3852L135.88 17.8333C136.286 18.9018 136.896 19.6729 137.71 20.1467C138.646 20.6522 139.7 20.8984 140.763 20.8598H145.064C146.285 20.8598 147.209 20.639 147.836 20.1975C148.133 20.0012 148.376 19.7324 148.54 19.4164C148.704 19.1004 148.785 18.7477 148.774 18.3917C148.788 18.0837 148.736 17.7762 148.619 17.4907C148.503 17.2052 148.325 16.9484 148.1 16.7383C147.65 16.3322 146.925 16.0356 145.924 15.8487L138.571 14.9325C137.825 14.8131 137.102 14.5859 136.422 14.2581C135.887 13.994 135.404 13.6363 134.995 13.2017C134.633 12.8115 134.36 12.3471 134.195 11.8408C134.032 11.3274 133.95 10.7914 133.954 10.2526C133.954 8.72485 134.526 7.52425 135.67 6.65079C136.814 5.77733 138.48 5.34141 140.669 5.34302H144.81C146.47 5.34302 147.856 5.63068 148.968 6.20601C150.016 6.71428 150.866 7.55594 151.385 8.59915L149.362 10.3783Z" fill="black"/>
<path d="M155.137 23.1757V5.57031H158.088V23.1757H155.137Z" fill="black"/>
<path d="M161.676 14.3715V14.3473C161.657 13.081 161.872 11.8221 162.312 10.6343C162.712 9.56488 163.341 8.59615 164.156 7.7964C164.993 6.98401 165.995 6.36079 167.093 5.96891C168.353 5.52966 169.68 5.31767 171.014 5.34282H174.855C176.191 5.3193 177.521 5.53123 178.783 5.96891C179.886 6.35609 180.893 6.97606 181.735 7.78673C182.551 8.59009 183.182 9.5619 183.584 10.6343C184.023 11.8224 184.238 13.0811 184.22 14.3473V14.3715C184.237 15.6463 184.021 16.9135 183.584 18.1111C183.187 19.1853 182.555 20.1573 181.735 20.9563C180.89 21.7608 179.884 22.3764 178.783 22.762C177.521 23.2033 176.19 23.4185 174.853 23.3978H171.014C169.681 23.4196 168.354 23.2043 167.096 22.762C165.999 22.3749 164.997 21.7594 164.156 20.9563C163.336 20.1581 162.706 19.1857 162.312 18.1111C161.873 16.9138 161.658 15.6464 161.676 14.3715ZM164.601 14.3715C164.59 15.2684 164.736 16.1602 165.034 17.0064C165.297 17.7557 165.723 18.4376 166.281 19.0031C166.852 19.5634 167.537 19.9931 168.29 20.2625C169.164 20.575 170.086 20.7281 171.014 20.7146H174.855C176.908 20.7146 178.494 20.1505 179.613 19.0224C180.731 17.8944 181.295 16.3505 181.305 14.3909V14.3667C181.317 13.4745 181.17 12.5872 180.872 11.7463C180.605 11.0023 180.179 10.3252 179.625 9.76169C179.05 9.19965 178.359 8.76984 177.601 8.50226C176.723 8.19434 175.798 8.04376 174.867 8.05747H171.014C170.088 8.0431 169.166 8.19371 168.292 8.50226C167.539 8.77172 166.854 9.20142 166.283 9.76169C165.727 10.324 165.302 11.0015 165.036 11.7463C164.738 12.5872 164.591 13.4745 164.603 14.3667L164.601 14.3715Z" fill="black"/>
<path d="M204.211 5.57031H207.112V23.1757H204.337L190.677 9.94566V23.1757H187.776V5.57031H190.549L204.211 18.8245V5.57031Z" fill="black"/>
</g>
<defs>
<linearGradient id="paint0_linear_1_390" x1="0.423626" y1="20.6567" x2="20.9733" y2="0.107049" gradientUnits="userSpaceOnUse">
<stop stop-color="#6734FF"/>
<stop offset="0.39" stop-color="#4B17E6"/>
<stop offset="0.73" stop-color="#00F9E0"/>
<stop offset="1" stop-color="#05D5FB"/>
</linearGradient>
<clipPath id="clip0_1_390">
<rect width="207" height="27.9152" fill="white" transform="translate(0.109375 0.16748)"/>
</clipPath>
</defs>
</svg>
